<svg xmlns="http://www.w3.org/2000/svg" viewBox="0 0 480 480">
  <g transform="translate(-15.999998,-18.539061)">
    <g transform="matrix(1.2048787,0,0,1.2048805,-52.183029,-1.4480279)" style="stroke-width:0.829958">
      <path style="fill:#bfbfbf;stroke:#404040;stroke-width:0.829958;stroke-linecap:round;stroke-linejoin:round"
            d="M 240,18.148438 A 198.99622,198.99622 0 0 0 57.003906,216 198.99622,198.99622 0 0 0 240,413.85156 v -28.24218 c -11.87383,-2.01574 -28.74437,-5.38249 -46.61133,-10.96876 -15.77805,-4.93313 -31.83597,-11.448 -44.62695,-20.16015 -12.79098,-8.71215 -22.55564,-19.87918 -24.34766,-33.97656 C 119.89391,284.94473 109.334,271.7374 101.26758,254.20508 93.201146,236.67276 88.468383,215.50665 96.855469,167.79688 105.49128,118.6722 145.56995,87.745692 182.85352,69.173828 205.04187,58.121257 226.28822,51.408219 240,47.722656 Z"/>
      <path style="fill:#8c8c8c;stroke:#404040;stroke-width:0.829958;stroke-linecap:round;stroke-linejoin:round"
            d="m 240,56.023438 c -13.35381,3.689212 -33.02625,10.072177 -53.58008,20.310546 -36.15925,18.011822 -73.68396,47.330766 -81.68554,92.847656 -8.234217,46.84009 -3.77877,65.20562 3.80078,81.67969 7.57952,16.47405 19.12542,31.74725 23.81445,68.63476 1.39813,10.99881 9.1804,20.37971 20.91601,28.37305 11.73564,7.99334 27.18271,14.342 42.51172,19.13477 16.66806,5.21141 32.65416,8.48206 44.22266,10.49414 V 354.43359 C 218.63548,351.0843 181.5625,340.54785 165.89062,307.36523 147.53341,268.49685 118.6794,232.90156 135.02539,167.51758 143.47701,133.7111 173.86325,111.0604 201.61328,96.691406 216.22359,89.126179 229.97906,83.947207 240,80.621094 Z"/>
      <path style="fill:#808080;stroke:#404040;stroke-width:0.829958;stroke-linecap:round;stroke-linejoin:round"
            d="m 240,89.054688 c -9.44154,3.247025 -21.81254,8.065405 -34.70703,14.742192 -26.79635,13.87515 -54.95753,35.46877 -62.50586,65.6621 -15.6539,62.61563 11.41049,94.41675 30.33594,134.48829 13.55003,28.68996 46.83239,38.70443 66.87695,42.19335 v -28.88085 c -1.67841,-0.82281 -3.32475,-1.61483 -5.14258,-2.57618 -10.80262,-5.71287 -23.59039,-13.7113 -31.7168,-23.84179 -7.25886,-9.04903 -10.84725,-17.79834 -14.61718,-27.85547 -3.76995,-10.05713 -7.7889,-21.56259 -16.05469,-37.10742 -7.3637,-13.84836 -8.68088,-26.25462 -5.43555,-38.65821 3.24536,-12.40357 10.63983,-24.75836 20.20703,-40.23047 C 199.58765,127.02199 216.31844,115.83532 240,110.57031 Z"/>
      <path style="fill:#4d4d4d;stroke:#404040;stroke-width:0.829958;stroke-linecap:round;stroke-linejoin:round"
            d="m 240,118.68359 c -21.08449,4.85955 -34.85711,14.56602 -45.95508,32.51368 -9.52313,15.40081 -16.46406,27.30957 -19.27344,38.04687 -2.80935,10.7373 -1.90214,20.34842 4.75977,32.87695 8.5312,16.04399 12.76319,28.13151 16.48437,38.0586 3.72121,9.92709 6.86448,17.55229 13.36524,25.65625 6.79802,8.47453 18.88094,16.30934 29.2168,21.77539 0.49655,0.2626 0.91513,0.45119 1.40234,0.70312 v -27.0957 C 213.4775,259.50597 202.13945,234.64656 203.72461,210.83398 205.2525,187.88168 218.57244,166.49503 240,149.98047 Z"/>
      <path style="fill:#404040;stroke:#404040;stroke-width:0.829958;stroke-linecap:round;stroke-linejoin:round"
            d="m 240,160.28125 c -17.02029,14.70216 -27.06192,32.59091 -28.29297,51.08398 -1.29695,19.48304 7.00119,40.15396 28.29297,59.35743 z"/>
      <path style="fill:#cc0000;stroke:#990000;stroke-width:0.829958;stroke-linecap:round;stroke-linejoin:round"
            d="M 272,17.705078 V 80 H 401.0918 A 198.99622,198.99622 0 0 0 272,17.705078 Z"/>
      <path style="fill:#ff9900;stroke:#cc7b00;stroke-width:0.829958;stroke-linecap:round;stroke-linejoin:round"
            d="m 272,96 v 48 H 441.10742 A 198.99622,198.99622 0 0 0 414.36914,96 Z"/>
      <path style="fill:#ffcc00;stroke:#cca300;stroke-width:0.829958;stroke-linecap:round;stroke-linejoin:round"
            d="m 272,160 v 48 h 182.55469 a 198.99622,198.99622 0 0 0 -8.03125,-48 z"/>
      <path style="fill:#00cc00;stroke:#009900;stroke-width:0.829958;stroke-linecap:round;stroke-linejoin:round"
            d="m 272,224 v 48 h 174.27148 a 198.99622,198.99622 0 0 0 8.20704,-48 z"/>
      <path style="fill:#003399;stroke:#002066;stroke-width:0.829958;stroke-linecap:round;stroke-linejoin:round"
            d="m 272,288 v 48 h 141.24023 a 198.99622,198.99622 0 0 0 27.29102,-48 z"/>
      <path style="fill:#5e0099;stroke:#400066;stroke-width:0.829958;stroke-linecap:round;stroke-linejoin:round"
            d="m 272,352 v 61.85156 A 198.99622,198.99622 0 0 0 399.86133,352 Z"/>
    </g>
  </g>
</svg>
